<?xml version="1.0" encoding="UTF-8"?>
<svg id="Layer_2" data-name="Layer 2" xmlns="http://www.w3.org/2000/svg" viewBox="0 0 150.52 149.16">
  <defs>
    <style>
      .cls-1 {
        fill: #fff;
      }

      .cls-1, .cls-2, .cls-3 {
        stroke-width: 0px;
      }

      .cls-2 {
        fill: #eea140;
      }

      .cls-3 {
        fill: #242c40;
      }
    </style>
  </defs>
  <g id="Layer_1-2" data-name="Layer 1">
    <g>
      <path class="cls-2" d="m13.92,118.87l3.64-2.06c33.46-16.99,77.69-21.06,128.05-14.81,3.16-8.31,4.91-17.32,4.91-26.74C150.52,33.69,116.82,0,75.26,0S0,33.69,0,75.26c0,16.26,5.15,31.31,13.92,43.61h0Z"/>
      <path class="cls-3" d="m29.52,134.95l-15.7-16c16.05-9.11,38.44-16.47,66.67-18.76,20.45-2.18,44.39-.57,65.12,1.82-18.48,40.57-52.37,52.49-92.09,45.09,0,0,16.15-8.74,20.15-12.15s4.74-4.15,4.3-6.96-9.92-8.06-10.37-9.78c-.58-2.19,4.77-5.59,10.22-6.22,4.96-.58,54.77-5.87,54.77-5.87,0,0,1.82-1.54.19-1.84s-41.25,1.16-43.41,1.04c-2.28-.14-22.35,2.61-27.26,4.19-4.73,1.52-7.78,3.7-7.56,6.19.18,1.92,3.41,5.78,2.37,8.3s-3.41,5.19-12.15,7.85-15.26,3.11-15.26,3.11Z"/>
    </g>
    <g>
      <path class="cls-1" d="m27.1,47.93c.71,0,1.82-.03,3.33-.08l6.53.13,5.51-.08,3.17.03,1.09-.08c.23,0,.57.03,1.01.08.05.66.08,1.2.08,1.63,0,.52-.37,1.76-1.1,3.73-.51,1.39-.98,2.73-1.4,4.02-.42,1.3-.73,2.23-.94,2.8-.5,1.28-.89,2.39-1.17,3.33-.3.73-.64,1.62-1.01,2.66l-1.3,3.65c-.21.64-.63,1.78-1.25,3.41l-2.13,5.91c-.18.39-.27.69-.27.91,0,.28.19.56.57.84.38.28.57.55.57.81,0,.34-.15.69-.45,1.07h-.69l-2-.03c-.11-.02-.42-.01-.93.01-.52.03-.92.04-1.23.04-.23,0-.59,0-1.07-.03.05-.53.42-1.5,1.09-2.9.39-.83,1.25-3.01,2.58-6.53l4.77-12.41,1.2-3.17c.23-.48.49-1.15.77-2,.09-.27.26-.73.51-1.39-1.74-.09-3.15-.13-4.24-.13l-3.97.05-3.17-.05c-.99,0-1.67.14-2.02.41-.36.28-.6.77-.75,1.48-.14.71-.32,1.16-.55,1.35s-.6.28-1.13.28c-.3,0-.53-.09-.69-.27-.16-.18-.24-.43-.24-.77,0-.85.11-2.16.32-3.92.12-.89.23-1.75.31-2.6.08-.84.17-1.58.28-2.2Z"/>
      <path class="cls-1" d="m51.61,81.87c0-.53.05-1.16.16-1.89l3.36-.59c.41-.09.91-.23,1.48-.43l.35-6.66c-.07-2.4-.11-4.19-.11-5.38l.03-.64c.05-.73.08-2.56.08-5.49l-.07-.77.07-2.24-.05-2.32v-1.15c0-1.03-.08-2.24-.23-3.62-.02-.12-.08-.34-.2-.64-.14-.05-.3-.09-.47-.11-.17-.02-.35-.04-.52-.08-.7-.12-1.44-.21-2.23-.27l-.4-.11c-.48-.05-.85-.12-1.1-.21-.05-.52-.08-.84-.08-.99,0-.21.05-.51.16-.88.36-.07.85-.11,1.49-.11s1.08,0,1.33-.03c2.17.23,3.78.36,4.83.37.48,0,.96.01,1.45.04.49.03.92.04,1.29.04.59,0,2.02-.09,4.29-.27.37-.09.78-.13,1.23-.13.66,0,1.21.04,1.65.11.02.37.03.64.03.8,0,.28-.04.63-.11,1.04l-4.71.75c-.38.18-.56.44-.56.77l.06.99.02.43-.02,1.17-.04.91v.21c.04.2.05.36.05.51l-.05,3.38c.04.32.05.56.05.72,0,.09-.01.37-.04.85-.01.28-.02.58-.02.88,0,.27.02.9.05,1.89.5.09.91.14,1.25.16l3.94.08h1.92l4.79.03,4.65-.13c.6,0,1.24-.06,1.92-.19.04-.6.06-2.09.08-4.45l.05-1.2-.16-4.53-.19-1.87c-.05-.12-.18-.24-.37-.35-.62-.35-1.86-.75-3.73-1.2-.34-.07-.66-.16-.96-.27.04-.62.11-1.13.21-1.52.39-.02.63-.03.72-.03l2.58.03c1.65.21,3.33.32,5.03.32.39,0,.7,0,.93-.03l3.46-.11c.32-.02.63-.04.93-.05.64-.14,1.29-.21,1.97-.21.51,0,1.13.03,1.86.08-.02.69-.06,1.32-.13,1.89-1.62.34-2.69.58-3.19.73-.5.15-1.01.36-1.52.63l-.16.53v.45l.03.69-.04.35c-.05.37-.07.66-.07.85v.67c.04.8.05,1.24.05,1.33v3.38l.03,2.56-.07,3.38c-.02.78,0,2.38.1,4.79v3.78l.05,3.14c0,.59-.02,1.3-.05,2.13.37.11.71.2,1.03.27,1.66.36,2.91.72,3.76,1.09l.08,1.86c-.71.02-1.13.03-1.25.03-.85,0-1.83-.05-2.93-.16-1.46-.16-3.8-.24-7.02-.24-1.45,0-3.33.12-5.64.35-.25,0-.55-.05-.9-.16.02-.82.06-1.39.13-1.73l2.05-.48,2.16-.35c.21-.05.49-.13.83-.24.2-1.44.3-3.83.32-7.17l.03-2.26c-.11-.94-.16-2.07-.16-3.38-.66-.05-1.37-.09-2.13-.11l-12.34-.13-.24-.03-.19-.03c-.12,0-.27,0-.43.03-.46.02-.85.03-1.17.03h-.74c-.34,0-.72.06-1.14.19l-.13,2v.35c.04.48.05.79.05.93v8.26c0,.46.03.93.08,1.41l.24.16,3.94.61c.2.07.35.12.46.13.23.05.43.13.59.24.05.41.08.68.08.83,0,.23-.04.55-.11.96-.64.02-1.18.03-1.63.03-.39,0-.76,0-1.09-.03-.16,0-.31,0-.45-.03l-3.76-.16c-.89-.09-2.13-.13-3.73-.13l-.56.03c-.75.04-1.18.06-1.31.08-1.1.14-2.83.21-5.18.21Z"/>
      <path class="cls-1" d="m129.83,48.04c.23.53.7,2.05,1.41,4.56.32,1.14.49,2.34.51,3.62h-2.42c-1.71-2.42-3.46-4.15-5.27-5.21s-3.84-1.58-6.07-1.58c-2.75,0-4.97,1.07-6.66,3.22-2.29,2.91-3.44,6.97-3.44,12.17,0,3.02.2,5.17.59,6.45.64,2.08,1.45,3.77,2.42,5.09.75.99,1.72,1.78,2.93,2.37,1.56.8,3.23,1.2,5.01,1.2,1.95,0,3.84-.61,5.66-1.82,1.82-1.21,3.57-3.02,5.23-5.43.66-.12,1.52-.19,2.58-.21-.07.67-.19,1.37-.35,2.1-.05.28-.26,1.41-.61,3.37l-.24.8-.37,1.25c-1.08.83-2.61,1.46-4.57,1.88-1.96.42-4.37.63-7.23.63-2.18,0-4.25-.2-6.19-.61-1.95-.41-3.61-1.06-5-1.94-2.02-1.28-3.61-2.66-4.77-4.16-1.16-1.49-2.01-3.12-2.57-4.88s-.84-3.73-.84-5.91c0-5.29,1.75-9.66,5.23-13.11,3.49-3.45,7.94-5.17,13.36-5.17,2.2,0,4.28.11,6.22.33,1.94.22,3.76.56,5.45,1Z"/>
    </g>
  </g>
</svg>